<svg
  width="250px"
  height="250px"
  viewBox="0 0 20 20"
  xmlns="http://www.w3.org/2000/svg"
  fill="#000000"
>
  <g id="SVGRepo_bgCarrier" stroke-width="0"></g>
  <g
    id="SVGRepo_tracerCarrier"
    stroke-linecap="round"
    stroke-linejoin="round"
  ></g>
  <g id="SVGRepo_iconCarrier">
    <g id="mountain" transform="translate(-2 -2)">
      <path
        id="secondary"
        fill="#27ce61"
        d="M20,21H4l5.12-9.48a1,1,0,0,1,1.76,0l2.49,4.62,1.23-2.53a1,1,0,0,1,1.8,0Z"
      ></path>
      <path
        id="primary"
        d="M16.4,13.61,20,21H11l3.6-7.39a1,1,0,0,1,1.8,0ZM4,21h7l2.37-4.86-2.49-4.62a1,1,0,0,0-1.76,0ZM3,21H21M15,6a3,3,0,1,0,3-3,3,3,0,0,0-3,3Z"
        fill="none"
        stroke="#000000"
        stroke-linecap="round"
        stroke-linejoin="round"
        stroke-width="2"
      ></path>
    </g>
  </g>
</svg>