<svg width="48" height="48" viewBox="0 0 48 48" fill="none" xmlns="http://www.w3.org/2000/svg">
<path d="M18.7051 14.9513V11.3333H29.2771V14.9513" fill="#9B9B9A"/>
<path d="M36.666 2.68131L28.6667 10.6806H24L20.6387 7.31931L25.2807 2.67798H36.666" fill="#92D3F5"/>
<path d="M36.666 2.68131L28.6667 10.6806H24L20.6387 7.31931L25.2807 2.67798H36.666" stroke="#92D3F5" stroke-width="1.8" stroke-miterlimit="10" stroke-linecap="round" stroke-linejoin="round"/>
<path d="M15.9892 2.66936L24.0005 10.6807H19.3338L11.3125 2.65869H15.9892" fill="#EA5A47"/>
<path d="M15.9892 2.66936L24.0005 10.6807H19.3338L11.3125 2.65869H15.9892" stroke="#EA5A47" stroke-width="1.8" stroke-miterlimit="10" stroke-linecap="round" stroke-linejoin="round"/>
<path d="M23.9993 45.3166C32.4677 45.3166 39.3327 38.4516 39.3327 29.9832C39.3327 21.5149 32.4677 14.6499 23.9993 14.6499C15.531 14.6499 8.66602 21.5149 8.66602 29.9832C8.66602 38.4516 15.531 45.3166 23.9993 45.3166Z" fill="#9B9B9A"/>
<path d="M23.9993 45.3166C32.4677 45.3166 39.3327 38.4516 39.3327 29.9832C39.3327 21.5149 32.4677 14.6499 23.9993 14.6499C15.531 14.6499 8.66602 21.5149 8.66602 29.9832C8.66602 38.4516 15.531 45.3166 23.9993 45.3166Z" stroke="black" stroke-width="2" stroke-miterlimit="10"/>
<path d="M23.9993 45.3166C32.4677 45.3166 39.3327 38.4516 39.3327 29.9832C39.3327 21.5149 32.4677 14.6499 23.9993 14.6499C15.531 14.6499 8.66602 21.5149 8.66602 29.9832C8.66602 38.4516 15.531 45.3166 23.9993 45.3166Z" stroke="black" stroke-width="2" stroke-miterlimit="10" stroke-linecap="round" stroke-linejoin="round"/>
<path d="M19.3319 12.6667V10.6807H28.6652V12.6667M17.3252 8.67336L11.3105 2.65869H15.9872M21.3252 8.00669L15.9872 2.66936M22.6652 5.33336L25.2792 2.67802H36.6645M30.6652 8.66669L36.6645 2.68136M18.8799 25.5847C19.1274 24.3841 19.7814 23.3056 20.7316 22.5311C21.6818 21.7566 22.87 21.3336 24.0959 21.3334C25.5659 21.3334 26.8972 21.9294 27.8605 22.8934C29.3592 24.392 29.2205 26.882 27.8145 28.468L18.7719 38.6667H29.4199" stroke="black" stroke-width="2" stroke-miterlimit="10" stroke-linecap="round" stroke-linejoin="round"/>
</svg>
