<svg width="48" height="48" viewBox="0 0 48 48" fill="none" xmlns="http://www.w3.org/2000/svg">
<path d="M18.6855 14.9513V11.3333H29.3149V14.9513" fill="#E27022"/>
<path d="M23.9993 45.3473C32.4677 45.3473 39.3327 38.4824 39.3327 30.014C39.3327 21.5456 32.4677 14.6807 23.9993 14.6807C15.531 14.6807 8.66602 21.5456 8.66602 30.014C8.66602 38.4824 15.531 45.3473 23.9993 45.3473Z" fill="#E27022"/>
<path d="M36.666 2.68131L28.6667 10.6806H24L20.6387 7.31931L25.2807 2.67798H36.666" fill="#92D3F5"/>
<path d="M36.666 2.68131L28.6667 10.6806H24L20.6387 7.31931L25.2807 2.67798H36.666" stroke="#92D3F5" stroke-width="1.8" stroke-miterlimit="10" stroke-linecap="round" stroke-linejoin="round"/>
<path d="M15.9892 2.66936L24.0005 10.6807H19.3338L11.3125 2.65869H15.9892" fill="#EA5A47"/>
<path d="M15.9892 2.66936L24.0005 10.6807H19.3338L11.3125 2.65869H15.9892" stroke="#EA5A47" stroke-width="1.8" stroke-miterlimit="10" stroke-linecap="round" stroke-linejoin="round"/>
<path d="M23.9993 45.3473C32.4677 45.3473 39.3327 38.4824 39.3327 30.014C39.3327 21.5456 32.4677 14.6807 23.9993 14.6807C15.531 14.6807 8.66602 21.5456 8.66602 30.014C8.66602 38.4824 15.531 45.3473 23.9993 45.3473Z" stroke="black" stroke-width="2" stroke-miterlimit="10"/>
<path d="M23.9993 45.3473C32.4677 45.3473 39.3327 38.4824 39.3327 30.014C39.3327 21.5456 32.4677 14.6807 23.9993 14.6807C15.531 14.6807 8.66602 21.5456 8.66602 30.014C8.66602 38.4824 15.531 45.3473 23.9993 45.3473Z" stroke="black" stroke-width="2" stroke-miterlimit="10" stroke-linecap="round" stroke-linejoin="round"/>
<path d="M19.3319 12.6667V10.6807H28.6652V12.6667M17.3252 8.67336L11.3105 2.65869H15.9872M21.3252 8.00669L15.9872 2.66936M22.6652 5.33336L25.2792 2.67802H36.6645M30.6652 8.66669L36.6645 2.68136M19.2205 35.2067C19.6765 37.1814 21.6472 38.6667 24.0085 38.6667C26.7085 38.6667 28.8965 36.7267 28.8965 34.3334C28.8965 31.94 26.7085 30 24.0085 30C26.7085 30 28.8965 28.06 28.8965 25.6667C28.8965 23.2734 26.7085 21.3334 24.0085 21.3334C21.6465 21.3334 19.6759 22.8187 19.2205 24.7934" stroke="black" stroke-width="2" stroke-miterlimit="10" stroke-linecap="round" stroke-linejoin="round"/>
</svg>
